PathFileType	4	(X/Y/Z)	4_coords_data.trc
DataRate	CameraRate	NumFrames	NumMarkers	Units	OrigDataRate	OrigDataStartFrame	OrigNumFrames
30.0	30.0	9	21	m	30.0	20	57
Frame#	Time	THUMB_TIP	THUMB_IP	THUMB_MCP	THUMB_CMC	INDEX_TIP	INDEX_DIP	INDEX_PIP	INDEX_MCP	MIDDLE_TIP	MIDDLE_DIP	MIDDLE_PIP	MIDDLE_MCP	RING_TIP	RING_DIP	RING_PIP	RING_MCP	PINKY_TIP	PINKY_DIP	PINKY_PIP	PINKY_MCP	WRIST
X1	Y1	Z1	X2	Y2	Z2	X3	Y3	Z3	X4	Y4	Z4	X5	Y5	Z5	X6	Y6	Z6	X7	Y7	Z7	X8	Y8	Z8	X9	Y9	Z9	X10	Y10	Z10	X11	Y11	Z11	X12	Y12	Z12	X13	Y13	Z13	X14	Y14	Z14	X15	Y15	Z15	X16	Y16	Z16	X17	Y17	Z17	X18	Y18	Z18	X19	Y19	Z19	X20	Y20	Z20	X21	Y21	Z21
18	0.6333333333333304	0.4758104911303479	-0.025914142894704617	-0.17260842445885272	0.47970380906249066	-0.027211341320155458	-0.1499995909700531	0.46557861438695136	-0.026218358473436676	-0.1222811339342757	0.47202253851306253	-0.0290959224144558	-0.078234732632668	0.5570224290792442	0.021367275051986656	-0.18533186065331864	0.5447839592521287	0.019992962364694167	-0.17205288776652	0.5300440524405073	0.012708024388910832	-0.15303514187291556	0.5040363487410229	0.0039645612019634235	-0.12046541215683843	0.5930959473340602	0.044181547281997635	-0.14062695794805719	0.578033786188334	0.037443533599839096	-0.13316167340966073	0.5543286028884254	0.02502602987824587	-0.12161700208294246	0.516400700987092	0.011237037348243106	-0.10244708128575725	0.604652515356395	0.03835969965132113	-0.09918225194864844	0.5878415909575045	0.03311603894799031	-0.0953226090528439	0.565538248958904	0.022813339933098087	-0.09124887517567365	0.5286978546553983	0.007488845717182002	-0.08471694907470001	0.6014305740557098	0.004613422579690107	-0.04356513184340788	0.5846677357730645	0.004518792008746608	-0.04702898775336217	0.5644745089058091	0.004344526882215205	-0.052774876662245174	0.5307442718716043	0.0013847753531862628	-0.06520043224349703	0.4622830810018608	-0.023011742144276925	-0.051989820119430985
19	0.6666666666666637	0.47613508007074146	-0.02580652115844284	-0.17256871652991201	0.47988408340305455	-0.02711525454645891	-0.14993616937027043	0.46560641592301066	-0.02618481486162494	-0.12229376547114873	0.47200128252254125	-0.029096567043842114	-0.07824246151310948	0.5570434399169784	0.021430718632042156	-0.18530476604137125	0.5448104368740941	0.020055402997000038	-0.17202086061198812	0.5300736856271943	0.012757494337652275	-0.15300564236746583	0.504079937562734	0.003970394742537242	-0.12043651532563526	0.5930297300798392	0.04448298430497821	-0.14050332999253345	0.5780020841493549	0.037625752644578014	-0.13307714444788088	0.5543274021208527	0.025131139138076186	-0.12155309940404074	0.5164091380526555	0.011282214083111586	-0.10240733104974259	0.6046429030347671	0.03847069158923522	-0.09913793735220228	0.5878539678043598	0.03313934499588822	-0.09530278450898999	0.5655576293013076	0.022825222181161897	-0.09121963144792822	0.5287104689281543	0.00753317505055362	-0.08464993579360897	0.6014574735798128	0.004563431710571164	-0.04360578438204299	0.584687151887193	0.004506124471555517	-0.047034053071395854	0.5644847307479358	0.004364039652263618	-0.05274842189185397	0.5307415803112024	0.0014231387199495904	-0.06514335437695878	0.4622830810018609	-0.023011742144276925	-0.051989820119430985
20	0.6999999999999968	0.4767284363978471	-0.02606916910031254	-0.17246874654338257	0.48024723596097585	-0.02729035152235615	-0.14979438297730607	0.46568369064191983	-0.026273142740964706	-0.12230459516374037	0.47199912499432284	-0.02912075703627315	-0.0782376417659203	0.5575598037119788	0.021052808397562406	-0.18503371328890844	0.5452672272511258	0.019707931819722746	-0.1718017870895806	0.5304072530086854	0.012526396855118582	-0.15283822850828632	0.5042204036345477	0.00387848641752897	-0.120386746894658	0.5930324547781586	0.04473598474432994	-0.1403602265630134	0.5780606408714086	0.03771926362459721	-0.13297034069991992	0.5544244741799783	0.025146173859187604	-0.12145258970912898	0.5165244932199108	0.01124332979419329	-0.10230969830968323	0.6045538810000208	0.03883126776434742	-0.09910600735713276	0.5878290260894633	0.0332914658749206	-0.09528634464339636	0.5655801895659118	0.022889727123213244	-0.09116650444145746	0.5287455350699682	0.0076043855807717	-0.08451162682459801	0.6014802313531085	0.005031823258672241	-0.043640310289218553	0.5847023371688626	0.004919949616597696	-0.047029963815828024	0.5644862147529267	0.004689757141393969	-0.05269277450383941	0.5307233177453522	0.0015577497211912705	-0.06498670659148792	0.4622830810018608	-0.023011742144276925	-0.051989820119430985
21	0.7333333333333302	0.4775374274570754	-0.026790798777706293	-0.17232871397121657	0.4807544117336643	-0.027777388832990413	-0.1495981694940819	0.4657645679603263	-0.026551493193517017	-0.12234708211151968	0.47193804274230355	-0.029179705187994842	-0.07824639378550402	0.5585803478418003	0.020110631737651596	-0.1845166839518071	0.5461582840576148	0.018844321877094505	-0.17139842222707075	0.5310266082393714	0.011944980059497401	-0.1525452712327265	0.5044099341295895	0.0037048657844614974	-0.12033829574498456	0.5930614870487972	0.04474862152081738	-0.14037529960288997	0.5781586543077729	0.03757933048073514	-0.13299242466993544	0.5545558297855829	0.024988671368900484	-0.12142559590383512	0.5166609652650529	0.011159364952314621	-0.10221941335740359	0.6043755803352489	0.0392942601655526	-0.09933092471752014	0.58776075278042	0.03345718979175516	-0.09547396804487857	0.5655809814553928	0.02295566157016693	-0.09123655987706059	0.5287453005658745	0.00777586266612873	-0.08434982243190225	0.6015008406490461	0.006131717794480851	-0.04384326252972942	0.584709670230253	0.005845066268107435	-0.04715602978226524	0.5644677069820903	0.005379869541112914	-0.05271107567453526	0.530672846797641	0.001798921534183151	-0.06479278447276415	0.462283081001861	-0.023011742144276925	-0.051989820119430985
22	0.7666666666666633	0.47875998336530134	-0.02827366482979854	-0.1720895277379288	0.48154576555629736	-0.028793208995407826	-0.14928668819009366	0.4659533950673783	-0.027220321440101336	-0.12239386373310052	0.47188944104527586	-0.029315119651296184	-0.0782320569471156	0.5601914610890368	0.018629264342528207	-0.18359459620209012	0.547536662454265	0.01747331130657881	-0.17069033938148798	0.5319356861761179	0.011013986495855832	-0.1520651817940133	0.5045624256185676	0.0035385089294176497	-0.12030895507227973	0.5932130630627768	0.044268532139519756	-0.14054652123776162	0.5783652367362805	0.03700847791410278	-0.1331415454766799	0.5547400106907469	0.024562117978342513	-0.12146480069712179	0.5167754180914633	0.011111111807585394	-0.10212809821803581	0.604184816661003	0.03961419218441009	-0.09986462230836829	0.5877122652634684	0.0334571749899113	-0.09589647542068491	0.5655983829191961	0.02291156318659604	-0.09143035200574673	0.5286834306412098	0.008109108693225009	-0.0841574933321792	0.6015400061228032	0.0076766481667860376	-0.044324149755724185	0.5847268207262097	0.007137578414782353	-0.04749056738804108	0.5644418394799137	0.006352411977956995	-0.052849211666578466	0.5305649847584903	0.0022305407651642684	-0.06452192955440311	0.4622830810018609	-0.023011742144276925	-0.051989820119430985
23	0.7999999999999965	0.4809060933911601	-0.030686024854616245	-0.17162561723828818	0.4830365658727588	-0.030494784180641665	-0.14874714451806992	0.4666097186892134	-0.02846353673119384	-0.12238708523498865	0.4720014040683278	-0.029600339514104457	-0.07812053569467076	0.5623734121315596	0.016528247680363206	-0.1821917560293831	0.5493737102907846	0.01552829135597622	-0.169621639108675	0.5330895868489001	0.009682130008784151	-0.15138268205976269	0.5046172682826178	0.0033245878925760586	-0.12035777548938303	0.5935293821483822	0.04307723726975077	-0.14089985267267635	0.578700097502321	0.035831465293636566	-0.13344390837592573	0.5549646813113032	0.023746840496295385	-0.12161168915269194	0.5168195648053392	0.011073443228218016	-0.10210571546687142	0.6041010477125255	0.039430482409285816	-0.10069652830358605	0.5877621650552356	0.03303502876006037	-0.09655659036541325	0.565656898059394	0.022614864468384233	-0.09176520996128773	0.5285483030664947	0.008577367696259608	-0.08397921638143158	0.6016377341788797	0.009285875137388655	-0.045278225244432646	0.5847904925931993	0.0084994390262777	-0.048202600254048544	0.5644332354117588	0.007422113556465937	-0.053225892887449666	0.5303706753928867	0.0029081025661259474	-0.06419171072014396	0.4622830810018609	-0.023011742144276925	-0.051989820119430985
24	0.8333333333333297	0.48436773926231	-0.03389086817688858	-0.17071397904374597	0.4855037242929653	-0.03276259864769826	-0.14779157633635887	0.4679091671411586	-0.030225209233553874	-0.12224136667786872	0.47241639337346386	-0.02998377639028138	-0.07786213029560307	0.5650273614199466	0.013783789783971767	-0.18024211146061497	0.5515740366323638	0.013000456574017494	-0.16814275440158105	0.5344154780528315	0.007942319633420625	-0.1504789792908372	0.5045597934488855	0.0030118473008163837	-0.120512921268349	0.5939937340239233	0.04110517542323788	-0.1414071114668647	0.5791233717428261	0.0340065079030476	-0.13389171094083047	0.5551717772576075	0.02253922234973571	-0.12188204676340836	0.5167364185311436	0.011038123388102172	-0.10222000609508619	0.6041315359815064	0.03863803959848833	-0.10173436354965815	0.5878805972581879	0.03214806675587378	-0.09739993819984838	0.5656957189456178	0.022075685018547064	-0.09224646564301586	0.5282933706249849	0.009189656369814503	-0.08389569084266912	0.6017453320587072	0.010776305621072457	-0.046791750253613096	0.5848500367980022	0.009823171276356901	-0.049368673413996866	0.5643918460440079	0.008548878836898588	-0.05391296971286719	0.5300568803474072	0.003846070082954789	-0.06390682639770495	0.462283081001861	-0.023011742144276925	-0.051989820119430985
25	0.8666666666666629	0.48927365505578424	-0.03748531198476024	-0.16925915559178772	0.48898178843151896	-0.03526712918657049	-0.14639008304943357	0.46997343926964996	-0.032312129251117705	-0.12192029274542915	0.4731100821326675	-0.03039559796407665	-0.07746381538413033	0.5680092581608335	0.010515370399970636	-0.1776273912903813	0.5540052404553889	0.010032488745349566	-0.16615331993740345	0.5358225786293925	0.0059374816325293844	-0.14928229274083338	0.5043731303592792	0.0026810752806164517	-0.12075223639359323	0.5945826529012107	0.038413527452843654	-0.14191467654975798	0.579598372081091	0.031607020636639116	-0.13435539131471413	0.5553086368554829	0.021039749851700318	-0.12220010025165717	0.5164826698400413	0.011085766115194629	-0.10246154878278735	0.604180638500036	0.037373557616453223	-0.10289187113053883	0.5879615070992078	0.030937440637975655	-0.09836239270118063	0.5656169153698241	0.021428916190818104	-0.09284087458702361	0.5278673056708315	0.01001086188460587	-0.08393493064861218	0.601778618407896	0.012200740864761306	-0.048861448184780054	0.5848266059201368	0.011170578194392489	-0.05099874495580481	0.5642464780753106	0.009816648270232875	-0.05492776909050745	0.5295852367185563	0.005089664819135975	-0.0637105605637171	0.4622830810018609	-0.023011742144276925	-0.051989820119430985
26	0.8999999999999961	0.49536237365518554	-0.041161857732816554	-0.16709719711968252	0.4932936743524071	-0.03782426550659512	-0.14445694620839283	0.47267381609591774	-0.03462458539384683	-0.1213614164968152	0.4740039302444583	-0.030822336655858873	-0.07693548149386542	0.571037491988848	0.006835198763466943	-0.17435076100735786	0.5564174453413349	0.006756125077497899	-0.16366207617821604	0.5371322778109846	0.0037654296406505194	-0.1478144300712907	0.5040032959173301	0.0023752011203133083	-0.1210903974910243	0.5952233241725775	0.03510559283678227	-0.14229034752736758	0.5800379138527442	0.028759626243264114	-0.1347317748173743	0.5553022594006578	0.01936606743212521	-0.12251220028760179	0.5160128442446694	0.011256129368135026	-0.10284703610576418	0.604188462088446	0.035734886259936705	-0.104059895717937	0.5879245873777112	0.029537708609025493	-0.09936081404631497	0.5653441625253364	0.02081387666228751	-0.0935128102286582	0.5272574410200029	0.011037291807237781	-0.08410319453261672	0.6016644380249823	0.013493622177644715	-0.051353000940362714	0.584653615318955	0.012502298346497742	-0.05298063355428645	0.5639463684485287	0.011218533577705525	-0.05620148655708407	0.5289502181730628	0.006604807518468592	-0.06360867554801275	0.4622830810018608	-0.023011742144276925	-0.051989820119430985
